<svg width="534" height="534" viewBox="0 0 534 534" fill="current" stroke="current" xmlns="http://www.w3.org/2000/svg">
<mask id="path-1-inside-1_1_3" fill="current">
<path d="M424.741 236.739C338.783 185.69 196.998 180.997 114.94 205.902C101.76 209.899 87.8267 202.462 83.8359 189.284C79.8428 176.099 87.2726 162.173 100.458 158.168C194.658 129.576 351.243 135.097 450.2 193.838C462.055 200.877 465.938 216.183 458.915 228.014C451.884 239.867 436.563 243.777 424.739 236.739H424.741ZM421.925 312.346C415.895 322.133 403.099 325.202 393.326 319.193C321.667 275.144 212.388 262.381 127.605 288.117C116.612 291.437 104.998 285.241 101.659 274.265C100.068 268.988 100.633 263.296 103.232 258.436C105.831 253.576 110.251 249.945 115.523 248.338C212.374 218.946 332.777 233.18 415.086 283.763C424.858 289.781 427.934 302.582 421.925 312.346ZM389.295 384.958C388.159 386.823 386.667 388.447 384.903 389.735C383.139 391.023 381.138 391.95 379.016 392.464C376.893 392.978 374.69 393.068 372.532 392.729C370.374 392.39 368.305 391.629 366.442 390.489C303.822 352.217 225.003 343.574 132.179 364.777C130.052 365.264 127.85 365.326 125.699 364.961C123.548 364.597 121.49 363.812 119.642 362.651C117.794 361.491 116.193 359.978 114.931 358.199C113.668 356.419 112.768 354.409 112.282 352.282C111.793 350.154 111.729 347.951 112.092 345.798C112.456 343.646 113.241 341.586 114.402 339.737C115.563 337.888 117.077 336.287 118.858 335.024C120.639 333.761 122.651 332.862 124.78 332.378C226.359 309.16 313.492 319.152 383.78 362.102C385.644 363.24 387.264 364.735 388.55 366.499C389.836 368.264 390.761 370.265 391.274 372.387C391.786 374.51 391.875 376.712 391.536 378.869C391.197 381.026 390.436 383.095 389.297 384.958H389.295ZM266.995 0.333313C119.726 0.333313 0.333313 119.722 0.333313 266.995C0.333313 414.283 119.726 533.667 266.998 533.667C414.276 533.667 533.667 414.283 533.667 266.995C533.667 119.724 414.278 0.333313 266.998 0.333313"/>
</mask>
<path d="M424.741 236.739C338.783 185.69 196.998 180.997 114.94 205.902C101.76 209.899 87.8267 202.462 83.8359 189.284C79.8428 176.099 87.2726 162.173 100.458 158.168C194.658 129.576 351.243 135.097 450.2 193.838C462.055 200.877 465.938 216.183 458.915 228.014C451.884 239.867 436.563 243.777 424.739 236.739H424.741ZM421.925 312.346C415.895 322.133 403.099 325.202 393.326 319.193C321.667 275.144 212.388 262.381 127.605 288.117C116.612 291.437 104.998 285.241 101.659 274.265C100.068 268.988 100.633 263.296 103.232 258.436C105.831 253.576 110.251 249.945 115.523 248.338C212.374 218.946 332.777 233.18 415.086 283.763C424.858 289.781 427.934 302.582 421.925 312.346ZM389.295 384.958C388.159 386.823 386.667 388.447 384.903 389.735C383.139 391.023 381.138 391.95 379.016 392.464C376.893 392.978 374.69 393.068 372.532 392.729C370.374 392.39 368.305 391.629 366.442 390.489C303.822 352.217 225.003 343.574 132.179 364.777C130.052 365.264 127.85 365.326 125.699 364.961C123.548 364.597 121.49 363.812 119.642 362.651C117.794 361.491 116.193 359.978 114.931 358.199C113.668 356.419 112.768 354.409 112.282 352.282C111.793 350.154 111.729 347.951 112.092 345.798C112.456 343.646 113.241 341.586 114.402 339.737C115.563 337.888 117.077 336.287 118.858 335.024C120.639 333.761 122.651 332.862 124.78 332.378C226.359 309.16 313.492 319.152 383.78 362.102C385.644 363.24 387.264 364.735 388.55 366.499C389.836 368.264 390.761 370.265 391.274 372.387C391.786 374.51 391.875 376.712 391.536 378.869C391.197 381.026 390.436 383.095 389.297 384.958H389.295ZM266.995 0.333313C119.726 0.333313 0.333313 119.722 0.333313 266.995C0.333313 414.283 119.726 533.667 266.998 533.667C414.276 533.667 533.667 414.283 533.667 266.995C533.667 119.724 414.278 0.333313 266.998 0.333313" fill="white"/>
<path d="M424.741 236.739V237.739H428.383L425.252 235.879L424.741 236.739ZM114.94 205.902L115.231 206.858L115.231 206.858L114.94 205.902ZM83.8359 189.284L84.793 188.994L84.793 188.994L83.8359 189.284ZM100.458 158.168L100.168 157.211L100.167 157.211L100.458 158.168ZM450.2 193.838L450.71 192.979L450.71 192.979L450.2 193.838ZM458.915 228.014L458.055 227.504L458.055 227.504L458.915 228.014ZM424.739 236.739V235.739H421.104L424.227 237.598L424.739 236.739ZM421.925 312.346L422.777 312.87L422.777 312.87L421.925 312.346ZM393.326 319.193L393.85 318.341L393.85 318.341L393.326 319.193ZM127.605 288.117L127.894 289.074L127.896 289.074L127.605 288.117ZM101.659 274.265L100.702 274.554L100.703 274.556L101.659 274.265ZM115.523 248.338L115.233 247.381L115.232 247.382L115.523 248.338ZM415.086 283.763L415.61 282.912L415.609 282.911L415.086 283.763ZM389.295 384.958V383.958H388.733L388.441 384.438L389.295 384.958ZM366.442 390.489L366.964 389.636L366.963 389.636L366.442 390.489ZM132.179 364.777L131.956 363.802L131.956 363.802L132.179 364.777ZM112.282 352.282L113.257 352.059L113.257 352.058L112.282 352.282ZM124.78 332.378L125.002 333.353L125.003 333.353L124.78 332.378ZM383.78 362.102L383.259 362.956L383.259 362.956L383.78 362.102ZM389.297 384.958V385.958H389.858L390.15 385.479L389.297 384.958ZM425.252 235.879C382.096 210.249 324.994 196.289 268.457 191.841C211.915 187.392 155.825 192.448 114.65 204.945L115.231 206.858C156.114 194.45 211.945 189.401 268.3 193.834C324.659 198.269 381.429 212.179 424.231 237.598L425.252 235.879ZM114.65 204.945C101.997 208.782 88.6233 201.643 84.793 188.994L82.8788 189.574C87.03 203.282 101.522 211.016 115.231 206.858L114.65 204.945ZM84.793 188.994C80.9596 176.336 88.0922 162.969 100.749 159.124L100.167 157.211C86.453 161.377 78.726 175.861 82.8788 189.574L84.793 188.994ZM100.749 159.125C147.704 144.872 210.271 139.109 273.464 144.25C336.659 149.391 400.383 165.43 449.689 194.698L450.71 192.979C401.06 163.506 337.012 147.413 273.626 142.256C210.237 137.099 147.411 142.871 100.168 157.211L100.749 159.125ZM449.689 194.698C461.069 201.454 464.797 216.147 458.055 227.504L459.774 228.525C467.08 216.219 463.041 200.299 450.71 192.979L449.689 194.698ZM458.055 227.504C451.305 238.883 436.598 242.634 425.25 235.879L424.227 237.598C436.528 244.919 452.462 240.852 459.775 228.524L458.055 227.504ZM424.739 237.739H424.741V235.739H424.739V237.739ZM421.074 311.821C415.332 321.141 403.15 324.059 393.85 318.341L392.802 320.045C403.048 326.344 416.458 323.125 422.777 312.87L421.074 311.821ZM393.85 318.341C321.932 274.133 212.355 261.346 127.315 287.16L127.896 289.074C212.421 263.416 321.402 276.155 392.803 320.045L393.85 318.341ZM127.316 287.16C116.85 290.32 105.794 284.421 102.616 273.974L100.703 274.556C104.202 286.062 116.375 292.553 127.894 289.074L127.316 287.16ZM102.617 273.976C101.102 268.953 101.64 263.534 104.114 258.908L102.35 257.964C99.6266 263.058 99.0339 269.024 100.702 274.554L102.617 273.976ZM104.114 258.908C106.588 254.281 110.796 250.824 115.815 249.295L115.232 247.382C109.706 249.065 105.074 252.871 102.35 257.964L104.114 258.908ZM115.814 249.295C212.405 219.982 332.51 234.19 414.562 284.615L415.609 282.911C333.044 232.17 212.342 217.911 115.233 247.381L115.814 249.295ZM414.561 284.615C423.866 290.345 426.792 302.531 421.074 311.821L422.777 312.87C429.077 302.634 425.85 289.218 415.61 282.912L414.561 284.615ZM388.441 384.438C387.373 386.191 385.971 387.717 384.313 388.927L385.493 390.542C387.363 389.177 388.945 387.456 390.149 385.478L388.441 384.438ZM384.313 388.927C382.655 390.137 380.775 391.009 378.78 391.492L379.251 393.436C381.501 392.891 383.622 391.908 385.493 390.542L384.313 388.927ZM378.78 391.492C376.785 391.975 374.715 392.059 372.687 391.741L372.377 393.717C374.664 394.076 377 393.98 379.251 393.436L378.78 391.492ZM372.687 391.741C370.659 391.422 368.714 390.707 366.964 389.636L365.92 391.342C367.895 392.55 370.089 393.357 372.377 393.717L372.687 391.741ZM366.963 389.636C304.06 351.191 224.956 342.559 131.956 363.802L132.401 365.752C225.05 344.589 303.584 353.244 365.92 391.342L366.963 389.636ZM131.956 363.802C129.957 364.259 127.888 364.318 125.866 363.975L125.532 365.947C127.812 366.334 130.147 366.268 132.402 365.752L131.956 363.802ZM125.866 363.975C123.845 363.633 121.91 362.895 120.174 361.804L119.11 363.498C121.069 364.728 123.251 365.561 125.532 365.947L125.866 363.975ZM120.174 361.804C118.437 360.714 116.933 359.292 115.746 357.62L114.115 358.777C115.454 360.664 117.151 362.268 119.11 363.498L120.174 361.804ZM115.746 357.62C114.559 355.948 113.714 354.058 113.257 352.059L111.307 352.504C111.822 354.76 112.776 356.891 114.115 358.777L115.746 357.62ZM113.257 352.058C112.797 350.058 112.737 347.988 113.078 345.965L111.106 345.632C110.721 347.914 110.789 350.25 111.308 352.506L113.257 352.058ZM113.078 345.965C113.42 343.942 114.158 342.006 115.249 340.269L113.555 339.205C112.324 341.166 111.492 343.349 111.106 345.632L113.078 345.965ZM115.249 340.269C116.34 338.532 117.763 337.026 119.436 335.84L118.279 334.208C116.391 335.547 114.786 337.245 113.555 339.205L115.249 340.269ZM119.436 335.84C121.11 334.653 123.001 333.808 125.002 333.353L124.558 331.403C122.301 331.916 120.168 332.869 118.279 334.208L119.436 335.84ZM125.003 333.353C226.398 310.177 313.248 320.175 383.259 362.956L384.302 361.249C313.736 318.129 226.32 308.143 124.557 331.403L125.003 333.353ZM383.259 362.956C385.01 364.025 386.534 365.43 387.742 367.088L389.358 365.91C387.995 364.04 386.277 362.456 384.302 361.249L383.259 362.956ZM387.742 367.088C388.95 368.747 389.82 370.627 390.302 372.622L392.246 372.153C391.703 369.902 390.721 367.781 389.358 365.91L387.742 367.088ZM390.302 372.622C390.783 374.617 390.867 376.687 390.548 378.714L392.524 379.024C392.883 376.738 392.789 374.403 392.246 372.153L390.302 372.622ZM390.548 378.714C390.229 380.741 389.514 382.685 388.444 384.436L390.15 385.479C391.358 383.505 392.164 381.311 392.524 379.024L390.548 378.714ZM389.297 383.958H389.295V385.958H389.297V383.958ZM266.995 -0.666687C119.174 -0.666687 -0.666687 119.169 -0.666687 266.995H1.33331C1.33331 120.274 120.279 1.33331 266.995 1.33331V-0.666687ZM-0.666687 266.995C-0.666687 414.835 119.174 534.667 266.998 534.667V532.667C120.279 532.667 1.33331 413.731 1.33331 266.995H-0.666687ZM266.998 534.667C414.828 534.667 534.667 414.835 534.667 266.995H532.667C532.667 413.731 413.724 532.667 266.998 532.667V534.667ZM534.667 266.995C534.667 119.172 414.831 -0.666687 266.998 -0.666687V1.33331C413.726 1.33331 532.667 120.276 532.667 266.995H534.667Z" fill="white" mask="url(#path-1-inside-1_1_3)"/>
<path d="M424.741 236.739V237.739H428.383L425.252 235.879L424.741 236.739ZM114.94 205.902L115.231 206.858L115.231 206.858L114.94 205.902ZM83.8359 189.284L84.793 188.994L84.793 188.994L83.8359 189.284ZM100.458 158.168L100.168 157.211L100.167 157.211L100.458 158.168ZM450.2 193.838L450.71 192.979L450.71 192.979L450.2 193.838ZM458.915 228.014L458.055 227.504L458.055 227.504L458.915 228.014ZM424.739 236.739V235.739H421.104L424.227 237.598L424.739 236.739ZM421.925 312.346L422.777 312.87L422.777 312.87L421.925 312.346ZM393.326 319.193L393.85 318.341L393.85 318.341L393.326 319.193ZM127.605 288.117L127.894 289.074L127.896 289.074L127.605 288.117ZM101.659 274.265L100.702 274.554L100.703 274.556L101.659 274.265ZM115.523 248.338L115.233 247.381L115.232 247.382L115.523 248.338ZM415.086 283.763L415.61 282.912L415.609 282.911L415.086 283.763ZM389.295 384.958V383.958H388.733L388.441 384.438L389.295 384.958ZM366.442 390.489L366.964 389.636L366.963 389.636L366.442 390.489ZM132.179 364.777L131.956 363.802L131.956 363.802L132.179 364.777ZM112.282 352.282L113.257 352.059L113.257 352.058L112.282 352.282ZM124.78 332.378L125.002 333.353L125.003 333.353L124.78 332.378ZM383.78 362.102L383.259 362.956L383.259 362.956L383.78 362.102ZM389.297 384.958V385.958H389.858L390.15 385.479L389.297 384.958ZM425.252 235.879C382.096 210.249 324.994 196.289 268.457 191.841C211.915 187.392 155.825 192.448 114.65 204.945L115.231 206.858C156.114 194.45 211.945 189.401 268.3 193.834C324.659 198.269 381.429 212.179 424.231 237.598L425.252 235.879ZM114.65 204.945C101.997 208.782 88.6233 201.643 84.793 188.994L82.8788 189.574C87.03 203.282 101.522 211.016 115.231 206.858L114.65 204.945ZM84.793 188.994C80.9596 176.336 88.0922 162.969 100.749 159.124L100.167 157.211C86.453 161.377 78.726 175.861 82.8788 189.574L84.793 188.994ZM100.749 159.125C147.704 144.872 210.271 139.109 273.464 144.25C336.659 149.391 400.383 165.43 449.689 194.698L450.71 192.979C401.06 163.506 337.012 147.413 273.626 142.256C210.237 137.099 147.411 142.871 100.168 157.211L100.749 159.125ZM449.689 194.698C461.069 201.454 464.797 216.147 458.055 227.504L459.774 228.525C467.08 216.219 463.041 200.299 450.71 192.979L449.689 194.698ZM458.055 227.504C451.305 238.883 436.598 242.634 425.25 235.879L424.227 237.598C436.528 244.919 452.462 240.852 459.775 228.524L458.055 227.504ZM424.739 237.739H424.741V235.739H424.739V237.739ZM421.074 311.821C415.332 321.141 403.15 324.059 393.85 318.341L392.802 320.045C403.048 326.344 416.458 323.125 422.777 312.87L421.074 311.821ZM393.85 318.341C321.932 274.133 212.355 261.346 127.315 287.16L127.896 289.074C212.421 263.416 321.402 276.155 392.803 320.045L393.85 318.341ZM127.316 287.16C116.85 290.32 105.794 284.421 102.616 273.974L100.703 274.556C104.202 286.062 116.375 292.553 127.894 289.074L127.316 287.16ZM102.617 273.976C101.102 268.953 101.64 263.534 104.114 258.908L102.35 257.964C99.6266 263.058 99.0339 269.024 100.702 274.554L102.617 273.976ZM104.114 258.908C106.588 254.281 110.796 250.824 115.815 249.295L115.232 247.382C109.706 249.065 105.074 252.871 102.35 257.964L104.114 258.908ZM115.814 249.295C212.405 219.982 332.51 234.19 414.562 284.615L415.609 282.911C333.044 232.17 212.342 217.911 115.233 247.381L115.814 249.295ZM414.561 284.615C423.866 290.345 426.792 302.531 421.074 311.821L422.777 312.87C429.077 302.634 425.85 289.218 415.61 282.912L414.561 284.615ZM388.441 384.438C387.373 386.191 385.971 387.717 384.313 388.927L385.493 390.542C387.363 389.177 388.945 387.456 390.149 385.478L388.441 384.438ZM384.313 388.927C382.655 390.137 380.775 391.009 378.78 391.492L379.251 393.436C381.501 392.891 383.622 391.908 385.493 390.542L384.313 388.927ZM378.78 391.492C376.785 391.975 374.715 392.059 372.687 391.741L372.377 393.717C374.664 394.076 377 393.98 379.251 393.436L378.78 391.492ZM372.687 391.741C370.659 391.422 368.714 390.707 366.964 389.636L365.92 391.342C367.895 392.55 370.089 393.357 372.377 393.717L372.687 391.741ZM366.963 389.636C304.06 351.191 224.956 342.559 131.956 363.802L132.401 365.752C225.05 344.589 303.584 353.244 365.92 391.342L366.963 389.636ZM131.956 363.802C129.957 364.259 127.888 364.318 125.866 363.975L125.532 365.947C127.812 366.334 130.147 366.268 132.402 365.752L131.956 363.802ZM125.866 363.975C123.845 363.633 121.91 362.895 120.174 361.804L119.11 363.498C121.069 364.728 123.251 365.561 125.532 365.947L125.866 363.975ZM120.174 361.804C118.437 360.714 116.933 359.292 115.746 357.62L114.115 358.777C115.454 360.664 117.151 362.268 119.11 363.498L120.174 361.804ZM115.746 357.62C114.559 355.948 113.714 354.058 113.257 352.059L111.307 352.504C111.822 354.76 112.776 356.891 114.115 358.777L115.746 357.62ZM113.257 352.058C112.797 350.058 112.737 347.988 113.078 345.965L111.106 345.632C110.721 347.914 110.789 350.25 111.308 352.506L113.257 352.058ZM113.078 345.965C113.42 343.942 114.158 342.006 115.249 340.269L113.555 339.205C112.324 341.166 111.492 343.349 111.106 345.632L113.078 345.965ZM115.249 340.269C116.34 338.532 117.763 337.026 119.436 335.84L118.279 334.208C116.391 335.547 114.786 337.245 113.555 339.205L115.249 340.269ZM119.436 335.84C121.11 334.653 123.001 333.808 125.002 333.353L124.558 331.403C122.301 331.916 120.168 332.869 118.279 334.208L119.436 335.84ZM125.003 333.353C226.398 310.177 313.248 320.175 383.259 362.956L384.302 361.249C313.736 318.129 226.32 308.143 124.557 331.403L125.003 333.353ZM383.259 362.956C385.01 364.025 386.534 365.43 387.742 367.088L389.358 365.91C387.995 364.04 386.277 362.456 384.302 361.249L383.259 362.956ZM387.742 367.088C388.95 368.747 389.82 370.627 390.302 372.622L392.246 372.153C391.703 369.902 390.721 367.781 389.358 365.91L387.742 367.088ZM390.302 372.622C390.783 374.617 390.867 376.687 390.548 378.714L392.524 379.024C392.883 376.738 392.789 374.403 392.246 372.153L390.302 372.622ZM390.548 378.714C390.229 380.741 389.514 382.685 388.444 384.436L390.15 385.479C391.358 383.505 392.164 381.311 392.524 379.024L390.548 378.714ZM389.297 383.958H389.295V385.958H389.297V383.958ZM266.995 -0.666687C119.174 -0.666687 -0.666687 119.169 -0.666687 266.995H1.33331C1.33331 120.274 120.279 1.33331 266.995 1.33331V-0.666687ZM-0.666687 266.995C-0.666687 414.835 119.174 534.667 266.998 534.667V532.667C120.279 532.667 1.33331 413.731 1.33331 266.995H-0.666687ZM266.998 534.667C414.828 534.667 534.667 414.835 534.667 266.995H532.667C532.667 413.731 413.724 532.667 266.998 532.667V534.667ZM534.667 266.995C534.667 119.172 414.831 -0.666687 266.998 -0.666687V1.33331C413.726 1.33331 532.667 120.276 532.667 266.995H534.667Z" fill="white" fill-opacity="0.2" mask="url(#path-1-inside-1_1_3)"/>
</svg>
